HIERARCHY
ROOT Hips
{
  OFFSET 42.3664 102.941 -11.8346
  CHANNELS 6 Xposition Yposition Zposition Zrotation Xrotation Yrotation
  JOINT Chest
  {
    OFFSET 1.23234e-007 14.8421 1.27324e-009
    CHANNELS 6 Xposition Yposition Zposition Zrotation Xrotation Yrotation
    JOINT Neck
    {
      OFFSET 0.51659 29.8236 6.51843
      CHANNELS 6 Xposition Yposition Zposition Zrotation Xrotation Yrotation
      JOINT Head
      {
        OFFSET 1.16803e-007 7.47049 6.44171e-007
        CHANNELS 6 Xposition Yposition Zposition Zrotation Xrotation Yrotation
        End Site
        {
          OFFSET -4.32676e-008 16.2908 2.16786e-007
        }
      }
    }
    JOINT LeftCollar
    {
      OFFSET 6.64893 27.3161 3.27471
      CHANNELS 6 Xposition Yposition Zposition Zrotation Xrotation Yrotation
      JOINT LeftUpArm
      {
        OFFSET 10.8584 2.41798 -0.945791
        CHANNELS 6 Xposition Yposition Zposition Zrotation Xrotation Yrotation
        JOINT LeftLowArm
        {
          OFFSET 3.77631 -24.5904 -1.70468
          CHANNELS 6 Xposition Yposition Zposition Zrotation Xrotation Yrotation
          JOINT LeftHand
          {
            OFFSET 1.01026 -21.1231 1.74131
            CHANNELS 6 Xposition Yposition Zposition Zrotation Xrotation Yrotation
            End Site
            {
              OFFSET 1.17583e-006 -9.81266 -2.89439e-008
            }
          }
        }
      }
    }
    JOINT RightCollar
    {
      OFFSET -6.11406 27.2248 4.23427
      CHANNELS 6 Xposition Yposition Zposition Zrotation Xrotation Yrotation
      JOINT RightUpArm
      {
        OFFSET -10.4566 2.3285 -0.910794
        CHANNELS 6 Xposition Yposition Zposition Zrotation Xrotation Yrotation
        JOINT RightLowArm
        {
          OFFSET -3.86856 -25.191 -1.74633
          CHANNELS 6 Xposition Yposition Zposition Zrotation Xrotation Yrotation
          JOINT RightHand
          {
            OFFSET -1.04759 -20.6242 1.75213
            CHANNELS 6 Xposition Yposition Zposition Zrotation Xrotation Yrotation
            End Site
            {
              OFFSET -2.03487e-006 -9.50367 -4.31372e-006
            }
          }
        }
      }
    }
  }
  JOINT LeftUpLeg
  {
    OFFSET 9 -3.38008e-006 -5.22996e-009
    CHANNELS 6 Xposition Yposition Zposition Zrotation Xrotation Yrotation
    JOINT LeftLowLeg
    {
      OFFSET -0.575 -51.431 3.90177
      CHANNELS 6 Xposition Yposition Zposition Zrotation Xrotation Yrotation
      JOINT LeftFoot
      {
        OFFSET 2.13082e-007 -43.5882 -3.90177
        CHANNELS 6 Xposition Yposition Zposition Zrotation Xrotation Yrotation
        End Site
        {
          OFFSET 7.44796e-007 -6.93413 15.0046
        }
      }
    }
  }
  JOINT RightUpLeg
  {
    OFFSET -9 6.86154e-007 -3.1954e-009
    CHANNELS 6 Xposition Yposition Zposition Zrotation Xrotation Yrotation
    JOINT RightLowLeg
    {
      OFFSET 0.575 -51.4311 3.90177
      CHANNELS 6 Xposition Yposition Zposition Zrotation Xrotation Yrotation
      JOINT RightFoot
      {
        OFFSET -7.46079e-007 -43.5882 -3.90177
        CHANNELS 6 Xposition Yposition Zposition Zrotation Xrotation Yrotation
        End Site
        {
          OFFSET 4.66716e-007 -6.93413 15.0046
        }
      }
    }
  }
}
MOTION
Frames:	9
Frame Time:	0.0333333
43.1341 93.7799 -11.9972 0.38563 -3.24147 -8.79884 1.23234e-007 14.8421 1.27324e-009 2.67043 10.223 -40.1177 0.51659 29.8236 6.51843 -5.402 -25.0984 20.0891 1.16803e-007 7.47049 6.44171e-007 2.22186 19.9214 16.6014 6.64893 27.3161 3.27471 -2.94784 5.93879 -4.20517 10.8584 2.41798 -0.945791 63.4884 -53.0212 45.0115 3.77631 -24.5904 -1.70468 9.31875 -0.546963 -45.5716 1.01026 -21.1231 1.74131 3.44257 1.19962 0.119608 -6.11406 27.2248 4.23427 -1.96452 7.32629 3.42623 -10.4566 2.3285 -0.910794 -112.12 12.334 -121.799 -3.86856 -25.191 -1.74633 154.024 -19.1078 174.481 -1.04759 -20.6242 1.75213 -18.8773 -0.401703 -2.17683 9 -3.38008e-006 -5.22996e-009 20.2096 -5.78438 21.962 -0.575 -51.431 3.90177 -3.40873 31.5844 -35.1274 2.13082e-007 -43.5882 -3.90177 9.60674 -7.87221 -0.336538 -9 6.86154e-007 -3.1954e-009 -19.3312 -12.6821 -18.4334 0.575 -51.4311 3.90177 -8.00458 26.5376 29.6281 -7.46079e-007 -43.5882 -3.90177 -9.10019 -4.85369 0.501726 
43.0325 93.7714 -11.8256 0.484792 -3.42909 -9.64181 1.23234e-007 14.8421 1.27324e-009 2.40267 10.3381 -41.535 0.51659 29.8236 6.51843 -5.54727 -25.0328 20.7116 1.16803e-007 7.47049 6.44171e-007 2.65137 19.722 17.0082 6.64893 27.3161 3.27471 -2.94784 5.93879 -4.20517 10.8584 2.41798 -0.945791 64.3692 -50.9537 45.3468 3.77631 -24.5904 -1.70468 9.49346 -0.599523 -45.4396 1.01026 -21.1231 1.74131 2.41402 1.62511 0.0183554 -6.11406 27.2248 4.23427 -1.96452 7.32629 3.42623 -10.4566 2.3285 -0.910794 -108.373 18.4102 -132.847 -3.86856 -25.191 -1.74633 152.352 -18.5663 170.855 -1.04759 -20.6242 1.75213 -18.8677 -0.858403 -2.21963 9 -3.38008e-006 -5.22996e-009 20.2386 -4.97176 22.3113 -0.575 -51.431 3.90177 -3.839 31.281 -34.655 2.13082e-007 -43.5882 -3.90177 9.64069 -8.07321 -0.321578 -9 6.86154e-007 -3.1954e-009 -19.277 -12.8536 -18.1788 0.575 -51.4311 3.90177 -8.22129 26.6643 30.2043 -7.46079e-007 -43.5882 -3.90177 -9.14914 -4.9953 0.494808 
43.0201 93.7528 -11.7408 0.6157 -3.3986 -10.6968 1.23234e-007 14.8421 1.27324e-009 2.20129 10.2894 -42.0225 0.51659 29.8236 6.51843 -5.25555 -25.5102 20.9848 1.16803e-007 7.47049 6.44171e-007 2.4895 20.2395 17.3071 6.64893 27.3161 3.27471 -2.94784 5.93879 -4.20517 10.8584 2.41798 -0.945791 64.9365 -49.6788 45.7759 3.77631 -24.5904 -1.70468 9.7278 -0.680132 -45.3606 1.01026 -21.1231 1.74131 1.47762 1.90798 -0.0693461 -6.11406 27.2248 4.23427 -1.96452 7.32629 3.42623 -10.4566 2.3285 -0.910794 -104.663 21.8432 -141.672 -3.86856 -25.191 -1.74633 150.707 -18.5573 168.182 -1.04759 -20.6242 1.75213 -19.0338 -0.456651 -2.20164 9 -3.38008e-006 -5.22996e-009 20.2171 -4.44725 22.6511 -0.575 -51.431 3.90177 -4.26784 31.1515 -33.9403 2.13082e-007 -43.5882 -3.90177 9.64271 -8.13975 -0.316352 -9 6.86154e-007 -3.1954e-009 -19.3028 -13.3823 -17.9939 0.575 -51.4311 3.90177 -8.37759 26.7993 31.0518 -7.46079e-007 -43.5882 -3.90177 -9.21222 -5.01463 0.496453 
43.1036 93.6915 -11.6487 0.698442 -3.51707 -11.8737 1.23234e-007 14.8421 1.27324e-009 2.01559 10.2824 -41.989 0.51659 29.8236 6.51843 -5.71045 -25.5771 21.0391 1.16803e-007 7.47049 6.44171e-007 2.83301 20.2088 17.1909 6.64893 27.3161 3.27471 -2.94784 5.93879 -4.20517 10.8584 2.41798 -0.945791 65.5243 -48.7442 45.4313 3.77631 -24.5904 -1.70468 9.40048 -0.523485 -45.1335 1.01026 -21.1231 1.74131 -0.115137 2.68629 -0.195432 -6.11406 27.2248 4.23427 -1.96452 7.32629 3.42623 -10.4566 2.3285 -0.910794 -104.044 23.4938 -147.397 -3.86856 -25.191 -1.74633 149.563 -18.5738 166.675 -1.04759 -20.6242 1.75213 -18.3895 -1.46897 -2.21403 9 -3.38008e-006 -5.22996e-009 20.1828 -3.8462 22.9709 -0.575 -51.431 3.90177 -4.67342 31.2441 -33.0875 2.13082e-007 -43.5882 -3.90177 9.66854 -8.31478 -0.303046 -9 6.86154e-007 -3.1954e-009 -19.376 -13.8461 -17.8344 0.575 -51.4311 3.90177 -8.51064 26.9495 32.0865 -7.46079e-007 -43.5882 -3.90177 -9.25704 -4.9727 0.50129 
43.2403 93.6107 -11.5651 0.772857 -3.51177 -12.6554 1.23234e-007 14.8421 1.27324e-009 1.85983 10.18 -41.7898 0.51659 29.8236 6.51843 -6.00731 -25.7195 20.8171 1.16803e-007 7.47049 6.44171e-007 3.01112 20.2569 16.8965 6.64893 27.3161 3.27471 -2.94784 5.93879 -4.20517 10.8584 2.41798 -0.945791 65.8265 -48.2985 45.0665 3.77631 -24.5904 -1.70468 9.17691 -0.401368 -45.4413 1.01026 -21.1231 1.74131 -0.719645 3.02206 -0.233402 -6.11406 27.2248 4.23427 -1.96452 7.32629 3.42623 -10.4566 2.3285 -0.910794 -103.626 23.9105 -150.337 -3.86856 -25.191 -1.74633 148.85 -18.7702 165.812 -1.04759 -20.6242 1.75213 -17.9897 -2.21707 -2.22681 9 -3.38008e-006 -5.22996e-009 20.0702 -3.63353 23.0535 -0.575 -51.431 3.90177 -4.84061 31.5035 -32.3191 2.13082e-007 -43.5882 -3.90177 9.80582 -8.78502 -0.268597 -9 6.86154e-007 -3.1954e-009 -19.5456 -14.1905 -17.8461 0.575 -51.4311 3.90177 -8.51313 27.0106 32.9821 -7.46079e-007 -43.5882 -3.90177 -9.33196 -4.99242 0.503442 
43.3988 93.4599 -11.4935 0.682356 -3.76524 -13.3693 1.23234e-007 14.8421 1.27324e-009 1.84467 10.4321 -41.3738 0.51659 29.8236 6.51843 -5.88322 -25.6377 20.5838 1.16803e-007 7.47049 6.44171e-007 2.44286 20.3975 16.8872 6.64893 27.3161 3.27471 -2.94784 5.93879 -4.20517 10.8584 2.41798 -0.945791 66.0052 -48.2581 45.3384 3.77631 -24.5904 -1.70468 9.37958 -0.479099 -45.5605 1.01026 -21.1231 1.74131 -1.65421 3.25079 -0.30795 -6.11406 27.2248 4.23427 -1.96452 7.32629 3.42623 -10.4566 2.3285 -0.910794 -104.413 23.5434 -150.85 -3.86856 -25.191 -1.74633 148.606 -18.9903 165.898 -1.04759 -20.6242 1.75213 -17.3201 -1.98164 -2.11148 9 -3.38008e-006 -5.22996e-009 20.0843 -3.29461 23.1373 -0.575 -51.431 3.90177 -4.93376 32.0179 -31.7221 2.13082e-007 -43.5882 -3.90177 9.93219 -9.23462 -0.234463 -9 6.86154e-007 -3.1954e-009 -19.5763 -14.3395 -17.7276 0.575 -51.4311 3.90177 -8.63216 27.2305 33.6268 -7.46079e-007 -43.5882 -3.90177 -9.37432 -5.06755 0.500354 
43.5979 93.2247 -11.4565 0.579539 -3.99272 -13.7356 1.23234e-007 14.8421 1.27324e-009 1.8337 10.648 -40.9088 0.51659 29.8236 6.51843 -5.81039 -25.4859 20.3231 1.16803e-007 7.47049 6.44171e-007 2.15876 20.5276 16.7537 6.64893 27.3161 3.27471 -2.94784 5.93879 -4.20517 10.8584 2.41798 -0.945791 66.1831 -48.5557 45.3234 3.77631 -24.5904 -1.70468 9.45137 -0.529676 -45.4511 1.01026 -21.1231 1.74131 -2.56212 3.64307 -0.363781 -6.11406 27.2248 4.23427 -1.96452 7.32629 3.42623 -10.4566 2.3285 -0.910794 -105.47 22.5465 -149.143 -3.86856 -25.191 -1.74633 148.508 -19.4318 166.432 -1.04759 -20.6242 1.75213 -17.0549 -1.97178 -2.07382 9 -3.38008e-006 -5.22996e-009 20.1585 -3.39321 23.1277 -0.575 -51.431 3.90177 -4.86973 33.0616 -31.3709 2.13082e-007 -43.5882 -3.90177 10.079 -9.63674 -0.203376 -9 6.86154e-007 -3.1954e-009 -19.6536 -14.4818 -17.6364 0.575 -51.4311 3.90177 -8.8213 27.6224 34.0319 -7.46079e-007 -43.5882 -3.90177 -9.3931 -5.12383 0.497432 
43.8786 92.88 -11.4469 0.557973 -4.43567 -13.7763 1.23234e-007 14.8421 1.27324e-009 1.83258 11.0852 -40.6859 0.51659 29.8236 6.51843 -6.15021 -25.4135 20.143 1.16803e-007 7.47049 6.44171e-007 2.31829 20.6285 16.4971 6.64893 27.3161 3.27471 -2.94784 5.93879 -4.20517 10.8584 2.41798 -0.945791 66.7024 -48.844 45.9888 3.77631 -24.5904 -1.70468 9.34085 -0.471405 -45.3067 1.01026 -21.1231 1.74131 -3.06547 3.58617 -0.415999 -6.11406 27.2248 4.23427 -1.96452 7.32629 3.42623 -10.4566 2.3285 -0.910794 -107.283 20.978 -145.416 -3.86856 -25.191 -1.74633 148.616 -20.0834 167.619 -1.04759 -20.6242 1.75213 -17.0171 -1.50112 -2.03056 9 -3.38008e-006 -5.22996e-009 19.9676 -3.65888 22.6972 -0.575 -51.431 3.90177 -4.46981 34.4199 -31.1036 2.13082e-007 -43.5882 -3.90177 10.3 -10.2865 -0.151034 -9 6.86154e-007 -3.1954e-009 -19.9873 -14.5385 -17.6593 0.575 -51.4311 3.90177 -9.1219 28.4119 34.5711 -7.46079e-007 -43.5882 -3.90177 -9.45849 -5.34823 0.484994 
44.2198 92.4038 -11.5104 0.457569 -4.75159 -13.6464 1.23234e-007 14.8421 1.27324e-009 1.8017 11.5602 -40.2663 0.51659 29.8236 6.51843 -5.89703 -25.5535 19.8857 1.16803e-007 7.47049 6.44171e-007 2.0222 20.9074 16.3831 6.64893 27.3161 3.27471 -2.94784 5.93879 -4.20517 10.8584 2.41798 -0.945791 67.3317 -49.5409 46.3706 3.77631 -24.5904 -1.70468 9.39984 -0.499888 -45.5775 1.01026 -21.1231 1.74131 -3.59576 3.46196 -0.47797 -6.11406 27.2248 4.23427 -1.96452 7.32629 3.42623 -10.4566 2.3285 -0.910794 -108.274 18.9887 -140.704 -3.86856 -25.191 -1.74633 148.764 -20.8578 168.742 -1.04759 -20.6242 1.75213 -16.9429 -1.18858 -1.99606 9 -3.38008e-006 -5.22996e-009 19.7933 -4.46495 21.9706 -0.575 -51.431 3.90177 -3.71855 36.3457 -31.2094 2.13082e-007 -43.5882 -3.90177 10.5489 -11.0163 -0.0885098 -9 6.86154e-007 -3.1954e-009 -20.2645 -14.7346 -17.5923 0.575 -51.4311 3.90177 -9.52545 29.3932 35.0451 -7.46079e-007 -43.5882 -3.90177 -9.62984 -5.91679 0.452925 
